<?xml version="1.0" encoding="utf-8"?>
<!-- Generator: Adobe Illustrator 19.2.1, SVG Export Plug-In . SVG Version: 6.00 Build 0)  -->
<svg version="1.0" id="Layer_1" xmlns="http://www.w3.org/2000/svg" xmlns:xlink="http://www.w3.org/1999/xlink" x="0px" y="0px"
	 viewBox="0 0 700 600" style="enable-background:new 0 0 700 600;" xml:space="preserve">
<style type="text/css">
	.st0{fill:#D79400;stroke:#000000;stroke-width:3;stroke-linecap:round;stroke-linejoin:round;stroke-miterlimit:10;}
	.st1{fill:#0075BF;stroke:#000000;stroke-width:3;stroke-linecap:square;stroke-linejoin:round;stroke-miterlimit:10;}
	.st2{fill:#D79400;stroke:#000000;stroke-width:3;stroke-linecap:square;stroke-linejoin:round;stroke-miterlimit:10;}
	.st3{fill:#0065B1;}
	.st4{fill:#FFFFFF;}
	.st5{fill:#D79400;stroke:#000000;stroke-width:3;stroke-miterlimit:10;}
	.st6{fill:#0075BF;}
	.st7{fill:#D79400;}
	.st8{fill:none;stroke:#000000;stroke-width:3;stroke-miterlimit:10;}
</style>
<polygon class="st0" points="639.7,331 511,351.5 511,425.8 639.7,412.9 605.2,378.4 "/>
<line class="st1" x1="559.9" y1="404.7" x2="511" y2="425.8"/>
<polygon class="st0" points="63,331 191.7,351.5 191.7,425.8 63,412.9 97.5,378.4 "/>
<line class="st1" x1="142.9" y1="404.7" x2="191.7" y2="425.8"/>
<g>
	<path class="st2" d="M350.9,40.9c0,0-105.7,66-219.2,83.1c0,0,42.7,262.6,59.8,288.3c17.1,25.7,133.7,146.6,159.4,146.6
		c25.7,0,142.3-120.9,159.4-146.6c17.1-25.6,59.8-288.3,59.8-288.3C456.6,106.9,350.9,40.9,350.9,40.9z"/>
	<path class="st2" d="M350.9,40.9c0,0-105.7,66-219.2,83.1c0,0,42.7,262.6,59.8,288.3c17.1,25.7,133.7,146.6,159.4,146.6
		c25.7,0,142.3-120.9,159.4-146.6c17.1-25.6,59.8-288.3,59.8-288.3C456.6,106.9,350.9,40.9,350.9,40.9z"/>
	<path class="st3" d="M350.9,58.2c0,0-98.6,61.6-204.6,77.5c0,0,39.9,245.1,55.8,269c16,23.9,124.8,136.8,148.7,136.8
		c23.9,0,132.8-112.8,148.7-136.8c16-23.9,55.8-269,55.8-269C449.5,119.8,350.9,58.2,350.9,58.2z"/>
	<path class="st4" d="M271.7,480.3L419.1,93.5c-41-18.4-68.1-35.3-68.1-35.3s-98.6,61.6-204.6,77.5c0,0,39.9,245.1,55.8,269
		C210,416.5,240.2,449.6,271.7,480.3z"/>
</g>
<g>
	<g>
		<path class="st5" d="M350.9,244.7l31.3,24.6c4.4,3.5,10.8,3.1,14.8-1l38-39c13.7-14,34.1-19.3,52.9-13.7L590,246l90.9,27
			c2.6,0.8,2.7,4.4,0.1,5.3l-24.6,8.7c-18.4,6.5-38.5,6.3-56.8-0.5l-34.2-12.7l52.5,26.8l-15.6,5.5c-9.8,3.5-20.6,3.3-30.3-0.6
			l-44.7-17.7l51.3,26.7l-6.8,2.4c-15.3,5.4-32.1,5.1-47.2-0.9L488,301.5l53.1,26.2l-32.3,11.4l-62.4-23.7l53.7,26.8l-131.5,46.4
			L352,404c-0.2,1.2-2-8.8-2.2-10l-16.5-5.6l-131.5-46.4l53.7-26.8l-62.4,23.7l-32.3-11.4l53.1-26.2l-42.5,16.8
			c-11.3,4.5-23.8,4.7-35.3,0.7l-12.8-4.5l51.3-26.7l-37.3,14.8c-14.5,5.7-30.6,6.1-45.3,0.9l-8-2.8l52.5-26.8l-28.2,10.5
			c-22.2,8.3-46.6,8.5-68.9,0.6l-18.5-6.5c-2.5-0.9-2.5-4.5,0.1-5.3l113.5-36.7l79.4-20.6c18.8-5.6,39.2-0.3,52.9,13.7l38,39
			c3.9,4,10.3,4.5,14.8,1L350.9,244.7"/>
		<g>
			<g>
				<polygon points="299.9,319.9 227.4,239 228.8,239.5 75.6,272.8 228.2,236.6 229,236.4 229.6,237.1 				"/>
			</g>
			<g>
				<polyline class="st6" points="114.3,295.6 178.9,272.8 222.2,258 				"/>
				<path d="M114.3,295.6c0,0,1.7-0.7,4.5-1.9c2.9-1.2,7.1-2.8,12-4.8c5-1.9,10.8-4.2,17.1-6.5c3.1-1.2,6.4-2.4,9.7-3.6
					c3.3-1.2,6.7-2.4,10-3.6c3.4-1.2,6.7-2.4,10-3.6c3.3-1.1,6.6-2.2,9.8-3.3c3.2-1,6.3-2,9.2-3c2.9-0.9,5.7-1.8,8.3-2.5
					c5.1-1.5,9.4-2.8,12.5-3.6c1.5-0.4,2.7-0.7,3.5-0.9c0.8-0.2,1.2-0.3,1.2-0.3s-0.4,0.2-1.2,0.5c-0.8,0.3-1.9,0.8-3.3,1.4
					c-2.9,1.2-7,2.9-12,4.8c-2.5,0.9-5.2,2-8.1,3c-2.9,1-5.9,2.1-9.1,3.3c-6.3,2.2-13.1,4.5-19.8,6.9c-3.4,1.2-6.8,2.3-10.1,3.4
					c-3.3,1.1-6.6,2.3-9.8,3.3c-6.4,2.1-12.3,4-17.4,5.7c-5.1,1.6-9.4,2.9-12.4,3.8C116,295,114.3,295.6,114.3,295.6z"/>
			</g>
			<g>
				<polyline class="st6" points="152.8,312.4 203.1,290.1 237.9,274.7 				"/>
				<path d="M152.8,312.4c0,0,1.3-0.7,3.6-1.9c2.3-1.2,5.5-2.8,9.4-4.7c2-1,4.1-2,6.3-3.1c2.3-1.1,4.6-2.2,7.1-3.4
					c2.5-1.2,5-2.3,7.6-3.5c2.6-1.2,5.2-2.4,7.9-3.6c2.7-1.2,5.3-2.4,7.9-3.6c2.6-1.1,5.2-2.3,7.7-3.3c2.5-1,4.9-2.1,7.3-3
					c2.3-0.9,4.5-1.8,6.5-2.6c2-0.8,3.9-1.5,5.6-2.1c1.7-0.6,3.1-1.2,4.3-1.6c1.2-0.4,2.2-0.7,2.8-1c0.6-0.2,1-0.3,1-0.3
					s-0.3,0.2-0.9,0.5c-0.6,0.3-1.5,0.8-2.6,1.4c-1.1,0.6-2.5,1.3-4.1,2.2c-1.6,0.8-3.4,1.7-5.3,2.7c-2,1-4.1,2-6.3,3.1
					c-2.3,1.1-4.6,2.2-7.1,3.3c-2.5,1.1-5.1,2.3-7.7,3.5c-2.6,1.1-5.3,2.3-8,3.5c-2.7,1.2-5.3,2.3-8,3.4c-2.6,1.1-5.2,2.2-7.7,3.3
					c-2.5,1-5,2-7.3,3c-2.3,0.9-4.5,1.8-6.5,2.6c-4.1,1.6-7.5,2.9-9.8,3.8C154.2,311.9,152.8,312.4,152.8,312.4z"/>
			</g>
			<g>
				<polyline class="st6" points="187.7,328.5 220.2,314.1 262.1,295.6 				"/>
				<path d="M187.7,328.5c0,0,0.3-0.2,0.8-0.5c0.5-0.3,1.3-0.7,2.3-1.3c2-1.1,4.8-2.6,8.2-4.3c1.7-0.9,3.6-1.8,5.5-2.7
					c2-1,4.1-1.9,6.2-3c2.1-1,4.4-2,6.7-3.1c2.3-1,4.6-2,6.9-3.1c2.3-1,4.7-2,7-3c2.3-1,4.6-1.9,6.8-2.8c4.4-1.8,8.5-3.5,12.1-4.9
					c3.6-1.4,6.5-2.5,8.6-3.3c2.1-0.7,3.3-1.2,3.3-1.2s-1.1,0.6-3.1,1.7c-2,1-4.8,2.5-8.2,4.2c-3.4,1.7-7.4,3.6-11.7,5.7
					c-2.2,1-4.4,2-6.7,3.1c-2.3,1.1-4.6,2.1-6.9,3.1c-2.3,1-4.6,2.1-6.9,3.1c-2.3,1-4.5,2-6.7,2.9c-2.2,0.9-4.3,1.8-6.4,2.6
					c-2,0.8-3.9,1.6-5.7,2.3c-3.6,1.4-6.6,2.5-8.7,3.2c-1.1,0.4-1.9,0.6-2.5,0.8C188,328.4,187.7,328.5,187.7,328.5z"/>
			</g>
		</g>
		<g>
			<g>
				<polygon points="398,319.9 468.3,237.1 468.9,236.4 469.8,236.6 622.4,272.8 469.1,239.5 470.6,239 				"/>
			</g>
			<g>
				<polyline class="st6" points="583.6,295.6 519,272.8 475.7,258 				"/>
				<path d="M583.6,295.6c0,0-1.7-0.5-4.7-1.4c-3-0.9-7.3-2.2-12.4-3.8c-5.1-1.6-11.1-3.5-17.4-5.7c-3.2-1-6.5-2.2-9.8-3.3
					c-3.3-1.1-6.7-2.3-10.1-3.4c-6.7-2.3-13.5-4.7-19.8-6.9c-3.1-1.1-6.2-2.2-9.1-3.3c-2.9-1.1-5.6-2.1-8.1-3c-5-1.9-9.2-3.6-12-4.8
					c-1.4-0.6-2.6-1.1-3.3-1.4c-0.8-0.3-1.2-0.5-1.2-0.5s0.4,0.1,1.2,0.3c0.8,0.2,2,0.5,3.5,0.9c3,0.8,7.3,2,12.5,3.6
					c2.6,0.8,5.3,1.6,8.3,2.5c2.9,0.9,6,1.9,9.2,3c3.2,1.1,6.5,2.2,9.8,3.3c3.3,1.2,6.7,2.4,10,3.6c3.4,1.2,6.7,2.4,10,3.6
					c3.3,1.2,6.6,2.4,9.7,3.6c6.3,2.3,12.1,4.6,17.1,6.5c5,1.9,9.1,3.6,12,4.8C582,294.9,583.6,295.6,583.6,295.6z"/>
			</g>
			<g>
				<polyline class="st6" points="545.1,312.4 494.8,290.1 460,274.7 				"/>
				<path d="M545.1,312.4c0,0-1.4-0.5-3.8-1.4c-2.4-0.9-5.8-2.2-9.8-3.8c-2-0.8-4.2-1.7-6.5-2.6c-2.3-1-4.7-2-7.3-3
					c-2.5-1-5.1-2.2-7.7-3.3c-2.6-1.1-5.3-2.3-8-3.4c-2.7-1.2-5.3-2.3-8-3.5c-2.6-1.2-5.2-2.3-7.7-3.5c-2.5-1.2-4.9-2.3-7.1-3.3
					c-2.2-1.1-4.4-2.1-6.3-3.1c-1.9-1-3.7-1.9-5.3-2.7c-1.6-0.8-2.9-1.5-4.1-2.2c-1.1-0.6-2-1.1-2.6-1.4c-0.6-0.3-0.9-0.5-0.9-0.5
					s0.3,0.1,1,0.3c0.7,0.2,1.6,0.5,2.8,1c1.2,0.4,2.7,1,4.3,1.6c1.7,0.6,3.5,1.3,5.6,2.1c2,0.8,4.2,1.7,6.5,2.6c2.3,1,4.7,2,7.3,3
					c2.5,1.1,5.1,2.2,7.7,3.3c2.6,1.2,5.3,2.4,7.9,3.6c2.7,1.2,5.3,2.4,7.9,3.6c2.6,1.2,5.2,2.4,7.6,3.5c2.5,1.2,4.8,2.3,7.1,3.4
					c2.2,1.1,4.4,2.1,6.3,3.1c3.9,1.9,7.2,3.6,9.4,4.7C543.8,311.8,545.1,312.4,545.1,312.4z"/>
			</g>
			<g>
				<polyline class="st6" points="510.2,328.5 477.7,314.1 435.9,295.6 				"/>
				<path d="M510.2,328.5c0,0-0.3-0.1-0.9-0.3c-0.6-0.2-1.4-0.5-2.5-0.8c-2.1-0.7-5.1-1.8-8.7-3.2c-1.8-0.7-3.7-1.5-5.7-2.3
					c-2-0.8-4.1-1.7-6.4-2.6c-2.2-0.9-4.4-1.9-6.7-2.9c-2.3-1-4.6-2-6.9-3.1c-2.3-1-4.6-2.1-6.9-3.1c-2.3-1.1-4.5-2.1-6.7-3.1
					c-4.3-2.1-8.3-4-11.7-5.7c-3.4-1.7-6.2-3.2-8.2-4.2c-2-1.1-3.1-1.7-3.1-1.7s1.2,0.4,3.3,1.2c2.1,0.8,5.1,1.9,8.6,3.3
					c3.6,1.4,7.7,3,12.1,4.9c2.2,0.9,4.5,1.9,6.8,2.8c2.3,1,4.6,2,7,3c2.3,1,4.7,2,6.9,3.1c2.3,1,4.5,2,6.7,3.1c2.2,1,4.2,2,6.2,3
					c2,1,3.8,1.9,5.5,2.7c3.4,1.7,6.2,3.2,8.2,4.3c1,0.5,1.7,1,2.3,1.3C509.9,328.3,510.2,328.5,510.2,328.5z"/>
			</g>
		</g>
	</g>
	<g>
		<g>
			<path class="st7" d="M398.3,274.7c1.6-5.5,2.6-11.4,2.9-17.7c0.3-5.6,0-11.7-0.8-17.9l0,0c-0.4-3-0.9-6-1.5-8.9
				c-0.3-1.5-0.7-2.9-1-4.4c-0.4-1.7-0.8-3-1.2-4.3l-1.5-5.8c-0.3-1.2-0.7-2.5-1-3.7c-0.2-0.7-0.4-1.4-0.6-2
				c-1-3.6-2.2-7.5-3.5-11.4c-0.4-1.2-0.9-2.5-1.3-3.6c-0.2-0.7-0.5-1.3-0.7-2l-1.1-2.8c-0.4-1.1-0.8-2-1.1-2.8
				c-1.5-3.6-3.2-7.2-5.2-10.8c-1.9-3.4-4-6.8-6.4-10.1c-0.3-0.4-0.6-0.8-0.9-1.2c-0.9-1.2-1.8-2.4-2.7-3.6c-1.2-1.5-2.5-3-4-4.5
				c-2.8-3-5.8-5.7-8.8-8.2c-3.3-2.7-6.7-4.9-10-6.8c-3.8-2.1-7.6-3.7-11.2-4.6c-4.2-1.1-8.3-1.5-12.2-1.1
				c-3.9,0.4-7.9,1.2-11.9,2.5c-3.9,1.3-7.7,2.8-11.1,4.7c-3.6,1.9-7,4.2-10.1,6.6c-1.7,1.3-3.2,2.6-4.6,4c-0.9,0.9-1.5,1.6-2.1,2.3
				l-0.5,0.6c-0.1,0.1-0.2,0.3-0.3,0.5l-0.1,0.2c-0.3,0.4-0.6,1-0.8,1.4c-0.9,1.9,0.5,1.1-0.1,3.1c-0.5,1.7,1.7,19.1,1.2,21.4
				c-0.9,3.8-2.4,5.4-3,9.4c-0.2,0.7-1.2,0.5-1.4,0.9c-0.3,0.6-1.4,0.6-1.7,1.2c-0.6,1.2-1.2,0.1-2,1.2c-0.7,1.1-1.4,2.3-2.3,3.4
				l-0.6,0.8l-0.7,0.7c-0.3,0.4-0.7,0.8-1.1,1.2l-0.3,0.3c-0.9,0.9-1.9,1.7-3.1,2.6c-1,0.7-2,1.5-3.3,2.4c-2,1.4-4.1,2.9-6.8,4.7
				c-9.6,6.5-5.9,7-14.2,12.2c0,0-3,1.3-3.1,1.3c-0.1,0.1-8.6,6.1-7.2,6.2c6.1,0.7,13.9-3.2,18.5-3.4c5.4-0.2,19.4-4.2,25-5.3
				c5.2-1,10.3-5.4,16-7c4.8-1.4,4.7-2.5,10.5-4.5l5.6-0.1c1.1-0.4,1.5,0.2,2.5,0h2.2c0.6-0.1,3.1,0.8,3.7,0.7
				c1.5-0.3,2.7,2.1,3.8,2.3c1.1,0.2,1.3,1.8,2.2,2.8c0.4,0.4-1.3,1.6-0.8,2.2c0.4,0.5,0.7,1,1,1.7c0.6,1,1.1,2.2,1.5,3.7
				c0.7,2.3,1.1,4.8,1.4,8c0.2,2.5,0.3,5.2,0.3,8.2c0,1.4-0.1,2.8-0.1,4.1c-0.1,1.4-0.2,2.7-0.5,4c-0.5,2.6-1.2,5.2-2.1,7.9
				c-1.8,5-4.4,9.8-7.9,14.3c-1.6,2.2-3.2,4.5-4.6,7c-1.3,2.4-2.5,5-3.4,7.6c-1.1,3-1.7,5.6-2,8.1c-0.2,1.3-0.2,2.6-0.1,4.2
				c0.1,0.9,0.2,1.6,0.3,2.3c0-0.7,0.1-1.5,0.2-2.3c0-0.3,0.1-0.6,0.1-0.9c0-0.4,0.1-0.8,0.2-1.2l0.1-0.5c0.1-0.5,0.2-1,0.3-1.5
				c0.4-2.1,0.9-4.1,1.5-5.9l0-0.1c1.8-2.5,4.2-3.8,4.3-3.9l0.5-0.3l-0.1,0.6c0,0.2-2.7,18,1.5,32.2c3.6,12.4,15.5,24.8,18.4,27.7
				c-2.5-13.6,0.5-20.9,6.5-28.8c6.2-8.2,23.1-20.1,23.3-20.2l0.5-0.3v0.6c0,0.9-1.8,3.9-2,4.3c-1.2,2.3-5.5,7.9-8.4,11.4
				c2.9-2.3,7.6-5.7,12.7-9.5c7.3-5.4,15.7-11.4,19.7-15c8.1-7.1,11.1-17.8,11.2-17.9l0.5-1.7l0.1,1.8c0.2,4.5-0.6,9.1-1.3,12.1
				c0.3-0.8,0.6-1.6,1-2.5C397.4,277.4,397.9,275.9,398.3,274.7z"/>
		</g>
	</g>
	<g>
		<path d="M331.5,192.9c9.1,0.7,31.4,4.4,42.5,23.7c6,10.4,5.2,16.1,0.7,47.2c-0.3,1.8-0.5,3.7-0.8,5.7h-10.7l-15.4-28L333,197.4
			L331.5,192.9 M327.9,189.8c-0.4,0-0.6,0-0.6,0l2.9,8.6l14.9,44.4l16.4,29.8h15.1c5.6-38.9,7.2-45.2,0.1-57.5
			C362.6,190.7,332.4,189.8,327.9,189.8L327.9,189.8z"/>
	</g>
	<path class="st8" d="M372.6,271c0,0,6.7-57.9-14.8-72.2l-7.6-3.4c0,0,19.6,26.3,18.7,75.6h-4.2c0,0-1-46.4-21.5-77.6"/>
	<path d="M400.7,239c-0.4-3-0.9-5.9-1.5-8.9c-0.3-1.5-0.7-2.9-1-4.4c-0.4-1.4-0.8-2.9-1.2-4.3l-1.5-5.8c-0.5-1.9-1-3.8-1.6-5.8
		c-1.1-3.8-2.3-7.6-3.5-11.4c-0.6-1.9-1.3-3.8-2-5.6l-1.1-2.8c-0.4-0.9-0.7-1.9-1.1-2.8c-1.5-3.7-3.3-7.3-5.2-10.8
		c-1.9-3.5-4.1-6.9-6.5-10.2c-1.2-1.6-2.3-3.2-3.6-4.8c-1.3-1.6-2.6-3.1-4-4.6c-2.8-2.9-5.7-5.7-8.9-8.2c-3.1-2.5-6.5-4.8-10-6.8
		c-3.5-2-7.3-3.6-11.3-4.7c-4-1.1-8.1-1.5-12.3-1.1c-4.1,0.4-8,1.3-11.9,2.5c-3.9,1.2-7.6,2.8-11.2,4.7c-3.6,1.9-7,4.1-10.2,6.6
		c-1.6,1.3-3.1,2.6-4.6,4.1c-0.7,0.7-1.4,1.5-2.1,2.3l-0.5,0.6c-0.2,0.2-0.3,0.5-0.5,0.7c-0.3,0.4-0.6,0.9-0.8,1.4
		c-1,2-1.1,1.5-1.7,3.5c-0.6,1.9-1.2,6.5-1,10.7c0,0,0.6,4.4,1.4,9.5c0.4,2.9-0.6,5.8-2.8,7.8c-16.3,14.5-50.8,40.9-49.5,41.1
		c0,0,29,0.4,58.3-10.7s33.8-2.5,33.8-2.5c0.4,0.4,0.8,0.9,1.2,1.4c0.4,0.5,0.7,1,1,1.7c0.6,1.1,1.1,2.3,1.5,3.6
		c0.7,2.5,1.2,5.2,1.4,7.9c0.2,2.7,0.3,5.4,0.3,8.2c0,1.4-0.1,2.7-0.1,4.1c-0.1,1.4-0.2,2.7-0.5,4c-0.5,2.6-1.2,5.3-2.1,7.8
		c-1.8,5.1-4.5,9.9-7.8,14.2c-1.7,2.2-3.2,4.6-4.6,7.1c-1.4,2.5-2.5,5-3.5,7.7c-0.9,2.7-1.7,5.4-2,8.2c-0.2,1.4-0.2,2.8-0.1,4.2
		c0.1,1.4,0.3,2.8,0.8,4.1c0-1.4,0.1-2.8,0.3-4.1c0.1-0.7,0.1-1.3,0.3-2c0.1-0.7,0.2-1.3,0.3-2c0.3-1.4,0.6-2.8,0.9-4.1
		c0-0.4,0.1-0.9,0.5-1.7c0.6-1.3,0.9-2,1.3-2.5c0.6-1.4,1.5-3.3,2.6-5.6c0.1,0.7,0.3,2.1,0.3,4.4c0,0-2.7,17.9,1.5,32.3
		c4.2,14.4,19.2,28.5,19.2,28.5c-2.7-13.8,0-21.2,6.3-29.5S363,296,363,296c0,0.9-2,4.1-2,4.1c-1.6,3.2-9.2,12.4-10.5,14
		c3.1-3.4,27.1-19.7,35.1-26.7c8.2-7.2,11.3-18,11.3-18c0.3,5.5-1,11.1-1.7,13.5c-1.1,2.8-2.5,5.5-4,8.2c0.8-1.3,1.6-2.5,2.3-3.9
		c0.7-1.3,1.4-2.7,2-4c0.6-1.4,1.2-2.8,1.7-4.2c0.5-1.4,1-2.8,1.4-4.3c1.7-5.8,2.6-11.7,2.9-17.7C401.8,251,401.5,245,400.7,239z
		 M287.9,215.1c-2.4,1.8-5,3.4-7.7,4.9c-0.7,0.4-1.4,0.8-2.1,1.1l-1,0.5l-0.5,0.2l-0.1,0.1l-0.1,0l-0.1,0l-0.3,0.1
		c-1.5,0.7-3,1.1-4.5,1.5c-2.9,0.8-5.8,1.4-8.6,1.9c-2.8,0.5-5.5,1-8.1,1.3c-2.6,0.4-4.7,0.7-6.9,1.1c-2.1,0.4-2.8,0.7-3.3,0.7
		c-2.8,0.7-5.7,1.3-8.5,1.1c2.6-0.5,6.4-1.4,11.1-2.4c2.2-0.5,4.6-1,7.1-1.5c2.5-0.6,5.1-1.2,7.9-1.8c2.7-0.7,5.5-1.4,8.2-2.3
		c1.4-0.5,2.7-0.9,3.9-1.5l0.2-0.1l0.1,0l0,0l0.1-0.1l0.5-0.3l1-0.5c0.6-0.4,1.2-0.7,1.8-1.1c2.5-1.5,4.9-3.2,7.3-4.9
		c2.4-1.7,4.6-3.5,6.8-5.2c1.1-0.9,2.2-1.7,3.3-2.6c1.2-0.9,2.5-1.6,3.8-2.2c2.6-1.1,5.1-1.8,7.6-2c2.4-0.2,4.8,0.1,6.8,1.1
		c1,0.5,1.8,1.1,2.4,1.9c0.6,0.7,1,1.5,1.1,2.2c0.2,0.7,0.2,1.4,0.2,1.9c0,0.5-0.1,1-0.1,1.4c-0.1,0.4-0.1,0.6-0.2,0.8
		c0,0.2-0.1,0.3-0.1,0.3c2-3.3,4-7.4,3.6-9.9c-0.9-4.5-5.4-4.5-5.4-4.5s-8.2,0.6-11.8,0c-3.6-0.6-2.1-2-4.5-3.2
		c-2.3-1.3-19.8,10.7-22.6,11.4c-0.6,0.2,11.6-14.9,10.1-18.1c-2.4-5-2.8-7.8-3-10.3c-0.2-2.7-0.3-8.6,0-10.5
		c0.4-2.5,0.7-4.1,1.5-5.7c0.2-0.4,0.4-0.7,0.7-1.1l0.4-0.5l0.4-0.5c0.6-0.7,1.2-1.4,1.9-2.1c1.4-1.4,2.8-2.6,4.3-3.8
		c3-2.4,6.3-4.5,9.7-6.4c3.4-1.8,7-3.3,10.7-4.5c3.7-1.2,7.5-2,11.4-2.4c3.8-0.4,7.6,0,11.3,1c3.7,1,7.3,2.5,10.7,4.4
		c3.4,1.9,6.6,4.1,9.7,6.5c3,2.4,5.9,5.1,8.6,7.9c1.3,1.4,2.6,2.9,3.9,4.4c1.2,1.5,2.4,3.1,3.5,4.7c2.3,3.2,4.4,6.5,6.4,9.9
		c1.9,3.4,3.7,6.9,5.2,10.6c0.4,0.9,0.8,1.8,1.2,2.7l1.1,2.7c0.7,1.9,1.4,3.7,2.1,5.6c0.6,1.7,1.2,3.5,1.8,5.2
		c0.1,0.5,0.2,1,0.3,1.5c0,0,0,0,0,0c15.3,45.9,8,62.9,8,62.9c-0.2-6-1.1-7.9-1.1-7.9c-0.4,6.6-3.5,10.3-6.4,17.3
		s-29.2,25.2-29.2,25.2c5.3-7.9,4.6-14.1,4.6-14.1s-24.4,14.9-31.7,29.2c-7.3,14.3-3.5,21.3-3.5,21.3s-5.3-6-11-15.6
		s-5.9-17.8-6.4-27.2c-0.3-6.2,0.1-10.4,0.4-12.5c0,0-0.1-5.5,2.5-11.6v0c1.9-2.5,6.4-8.6,8.6-13.9c1.2-3.6,1.9-6.7,2.7-9.7
		c1.8-6.8,0-18.4,0-18.4c-0.3-2.1-0.6-4.2-1.2-6.3c-0.4-1.4-0.9-2.8-1.6-4.1c-0.3-0.6-0.7-1.3-1.1-1.9c-0.4-0.6-0.9-1.2-1.4-1.8
		c-1.1-1.1-2.5-2-4.1-2.3c-0.8-0.2-1.6-0.2-2.3-0.2c0.4-0.3,0.8-0.6,1.2-0.9l1.8-1.4l0.9-0.7c0.3-0.2,0.6-0.4,0.9-0.7l0.1-0.1
		l0.1-0.1l0.3-0.2c0.2-0.1,0.4-0.3,0.5-0.5c0.1-0.2,0.3-0.3,0.4-0.5l0.4-0.6c0.2-0.4,0.4-0.8,0.6-1.2c0.2-0.4,0.3-0.8,0.4-1.2
		c0.1-0.4,0.2-0.8,0.3-1.2c0.1-0.4,0.1-0.8,0.2-1.2c0-0.4,0.1-0.8,0.1-1.2c0-0.4,0-0.8,0-1.2c0-0.7-0.1-1.3-0.2-2
		c-0.1-0.7-0.3-1.3-0.5-1.9c-0.5-1.3-1.3-2.5-2.5-3.4c-0.6-0.4-1.2-0.7-1.9-1c-0.4-0.1-0.7-0.2-1.1-0.3l-0.9-0.1l-0.2,0l-0.1,0
		l-0.1,0l-0.1,0l-0.4,0l-0.9,0l-1.8,0l-3.6-0.1c-1.2,0-2.3-0.1-3.5-0.2c-0.3,0-0.6-0.1-0.8-0.1c-0.3,0-0.5-0.1-0.8-0.1l-0.2,0
		l-0.1,0c-0.1,0-0.1,0-0.2-0.1c-0.1,0-0.2-0.1-0.2-0.1c-0.1,0-0.2-0.1-0.3-0.2c-0.7-0.5-1.3-1.5-1.9-2.4c-0.1-0.2-0.2-0.4-0.4-0.7
		c0.1-0.5,0.2-1,0.2-1.4c0-1.2,2.2,0,2.2,0s1.4,1.5,7.9,1.8c6.5,0.3,11.4-3.2,11.4-3.2c-6,1.2-9.1,2-13.9,0.9
		c-3.5-0.8-4.4-2.7-4.6-3.6c0-0.3,0.1-0.7,0.1-1.1c0-0.4,0.1-0.8,0.2-1.2c0.1-0.4,0.1-0.9,0.3-1.3c0.1-0.4,0.3-0.9,0.4-1.4
		c0.2-0.5,0.4-0.9,0.6-1.4c0.2-0.5,0.5-1,0.7-1.5c0.3-0.5,0.6-0.9,1-1.4c0.2-0.3,0.5-0.5,0.7-0.8c0.8-0.7,1.8-1.4,3-1.4
		c2.5,0,2,1.9,1.5,2.4c-0.4,0.5-0.7,2-5,1.8c0,0,2.3,2.2,4.6,1.9c2.4-0.2,5.5-1.9,5.2-5.6c0,0,0.3-1.7-1.4-3.6
		c2.9-1.5,3.3-0.9,4.3-0.3c0.9,0.6,1.1,3.6-0.2,6.9c-1.4,3.3-8.7,4.4-8.7,4.4c1.1,0.5,3.3,0.4,3.3,0.4c3.6,0,5.3-1.7,9.1-3.7
		c3.8-2,11.6-1.7,11.6-1.7c-0.7-0.5-5.2-1-5.2-1c-4.9,0.1-8,2-8,2c2.8-4.7,1.7-6,1.3-7.5c-0.2-0.9-1.1-1.9-1.8-2.6
		c0.5-0.1,0.9-0.2,1.4-0.3c1.1-0.2,2.1-0.4,3.1-0.6c1-0.1,1.9-0.3,2.7-0.3c0.8-0.1,1.5-0.1,2.1-0.2c1.2-0.1,1.8-0.1,1.8-0.1
		s-0.7-0.2-1.8-0.3c-1.2-0.1-2.8-0.3-4.8-0.2c-1,0-2.1,0.1-3.2,0.2c-1.2,0.1-2.4,0.3-3.6,0.6c-1.2,0.3-2.5,0.6-3.8,1.1
		c-0.6,0.2-1.3,0.5-1.9,0.8c-0.6,0.3-1.2,0.6-1.9,0.9c-0.6,0.3-1.2,0.7-1.8,1.1c-0.3,0.2-0.6,0.4-0.9,0.6c-0.3,0.2-0.5,0.4-0.8,0.6
		c-0.3,0.2-0.5,0.4-0.8,0.7c-0.2,0.2-0.5,0.5-0.7,0.7c-0.5,0.5-0.9,1-1.4,1.5c-0.3,0.4-0.6,0.8-0.9,1.2c0.1-0.5,0.3-0.9,0.5-1.3
		c0.5-1.2,1-2.4,1.6-3.5c0.6-1.1,1.3-2.1,1.9-3.1c0.7-0.9,1.4-1.8,2.1-2.6c0.7-0.8,1.3-1.5,1.9-2.1c0.6-0.6,1.2-1.1,1.6-1.5
		c0.9-0.8,1.4-1.3,1.4-1.3s-0.7,0.3-1.8,0.8c-0.6,0.3-1.2,0.7-2,1.1c-0.7,0.5-1.6,1-2.4,1.7c-0.9,0.7-1.7,1.5-2.6,2.5
		c-0.8,1-1.7,2-2.4,3.2c-0.7,1.2-1.4,2.5-1.9,3.9c-0.5,1.4-0.9,2.7-1.3,4c-0.5,1.2-1,2.4-1.8,3.3c-0.7,1-1.7,1.6-2.7,2l-0.4,0.1
		l-0.4,0.1l-0.4,0.1l-0.3,0c-1.7,0.7-2.9-1.1-2.9-1.1c-0.1-0.3-0.2-0.6-0.3-0.9c-0.2-0.9-0.2-1.9-0.1-2.7c0.1-0.8,0.2-1.6,0.3-2.2
		c0.2-1.2,0.4-1.9,0.4-1.9s-0.4,0.6-0.9,1.8c-0.2,0.6-0.5,1.3-0.7,2.2c-0.2,0.9-0.4,1.9-0.3,3.1c0,0.1,0,0.3,0.1,0.4
		c0,1.5,2,2.7,2,2.7s3.7,1.4,4.8,0.4c1-0.3,1.9-0.8,2.7-1.4l-1.3,2.9l-0.9,3.4c0.4,1.1,0.9,2.1,1.5,3.2c0.3,0.6,0.7,1.1,1.1,1.6
		c0.2,0.3,0.4,0.5,0.7,0.8c0.3,0.2,0.5,0.5,0.8,0.7c0.2,0.1,0.3,0.2,0.5,0.3l0.5,0.3c0.2,0.1,0.4,0.2,0.6,0.2c0.1,0,0.2,0.1,0.3,0.1
		l0.2,0c0.3,0.1,0.6,0.1,0.9,0.2c0.3,0,0.6,0.1,0.9,0.1c1.2,0.1,2.5,0.2,3.7,0.2l3.6,0.1l1.8,0l0.9,0l0.4,0l0.1,0l0,0l0.2,0l0.9,0.1
		c0.2,0.1,0.4,0.1,0.6,0.2c0.4,0.1,0.9,0.3,1.2,0.6c0.7,0.5,1.3,1.3,1.7,2.3c0.2,0.5,0.3,1,0.4,1.5c0.1,0.5,0.2,1.1,0.2,1.5l0,0.1
		l0,0c0,0.3,0,0.7,0,1c0,0.4,0,0.7,0,1.1c0,0.4-0.1,0.7-0.1,1.1c0,0.3-0.1,0.7-0.2,1c-0.1,0.3-0.2,0.7-0.3,1
		c-0.1,0.3-0.3,0.6-0.4,0.9l-0.3,0.4c-0.1,0.1-0.2,0.2-0.3,0.4c-0.1,0.1-0.2,0.2-0.3,0.3l-0.2,0.2l-0.1,0.1l-0.1,0.1
		c-0.3,0.2-0.6,0.5-0.9,0.7c-0.3,0.3-0.6,0.5-0.9,0.8c-0.2,0.2-0.5,0.5-0.7,0.7c0-0.1,0.1-0.1,0.1-0.2c0,0,0-0.1-0.1-0.3
		c0-0.2-0.1-0.5-0.2-0.8c-0.2-0.7-0.4-1.7-1.1-2.7c-0.6-1-1.7-1.9-3.1-2.2c-1.5-0.4-3.3-0.3-5.3,0.1c-2,0.4-4.2,0.5-6.3,1.5
		c-1.1,0.5-2.4,1.2-3.4,2c-1,0.8-1.7,1.3-2.8,2.1"/>
	<path class="st0" d="M142.9,322.3c0,0,112.7,11.9,208.1,11.9s208.9-11.9,208.9-11.9v82.5c0,0-51.4,11.7-209.1,11.7
		s-207.9-11.7-207.9-11.7V322.3z"/>
	<g>
		<g>
			<path d="M179.8,358.6c0.6-6.2,4.8-9.1,12.5-8.6c-0.2,2.3-0.3,3.4-0.5,5.7c-2.3,0.1-3.5,1.2-3.7,3.4c-0.6,7-0.9,10.5-1.6,17.5
				c-0.2,2.3,0.8,3.6,3.1,4c-0.2,2.2-0.3,3.4-0.5,5.6c-7.8-1-11.4-4.9-10.8-11.7C178.9,368.2,179.2,365,179.8,358.6z M196.4,359.8
				c0.2-2.3-0.9-3.6-3.2-4c0.2-2.3,0.3-3.4,0.5-5.7c7.9,0.7,11.6,4.4,11,10.9c-0.5,6.4-0.8,9.5-1.3,15.9c-0.5,6.8-4.9,10-12.9,9.4
				c0.2-2.2,0.3-3.4,0.5-5.6c2.4,0,3.7-1.1,3.9-3.4C195.5,370.3,195.8,366.8,196.4,359.8z"/>
			<path d="M215,377.2c-0.1,3.1,1.2,4.9,4.1,5.3c-0.2,2.4-0.3,3.6-0.4,6c-8.2-0.9-12.1-4.9-11.5-12C210.3,376.9,211.9,377,215,377.2
				z M233.3,380.7c-0.4,5.7-4.6,8.4-12.6,8c0.2-2.4,0.3-3.6,0.4-6c2.7,0,4.2-1,4.2-2.5c0-1-0.7-2.2-1.9-3.2
				c-1.9-1.6-3.8-3.2-5.4-4.6c-1.7-1.4-3.3-2.8-5-4.1c-2.3-2.1-3.8-4.9-3.8-7.7c0-5.3,4.5-8.5,12.1-8.2c-0.2,2.4-0.3,3.5-0.4,5.9
				c-1.3,0.1-2.3,0.3-2.8,0.8c-0.5,0.5-0.8,1.2-0.9,2.3c-0.1,1,0.3,1.8,1,2.4c0.5,0.4,1.1,0.8,1.9,1.4c0.7,0.6,1.5,1.2,2.3,1.8
				c0.8,0.6,1.6,1.3,2.4,1.9c0.8,0.6,1.5,1.2,2.1,1.7c0.6,0.5,1.2,0.9,1.5,1.3c0.4,0.3,0.6,0.5,0.6,0.5
				C232.1,374.8,233.5,377.6,233.3,380.7z M226,362.9c0.2-2.4-0.9-3.9-3.2-4.4c0.2-2.4,0.3-3.5,0.4-5.9c7.7,0.8,11.3,4.4,10.9,10.9
				C230.9,363.2,229.2,363.1,226,362.9z"/>
			<path d="M256.3,355.3c2.3,11.8,4.7,23.6,7.2,35.3c-3.4-0.2-5.2-0.2-8.6-0.4c-0.5-3-0.8-4.4-1.3-7.4c-2.8-0.2-4.2-0.2-7.1-0.4
				c0.6-2.3,0.9-3.4,1.5-5.7c1.9,0.1,2.8,0.2,4.7,0.3c-0.8-5.7-1.2-8.6-2-14.3c-2.6,9-5.2,18-7.8,26.9c-3.2-0.2-4.9-0.3-8.1-0.5
				c3.7-11.4,7.4-22.8,11.1-34.3C250,354.9,252.1,355,256.3,355.3z"/>
			<path d="M273.6,380.7c0,3.1,1.4,4.8,4.3,5.2c-0.1,2.4-0.1,3.6-0.2,6c-8.3-0.6-12.2-4.5-11.9-11.6
				C268.9,380.5,270.5,380.5,273.6,380.7z M292,383.5c-0.2,5.7-4.3,8.6-12.3,8.4c0.1-2.4,0.1-3.6,0.2-6c2.7-0.1,4.2-1.2,4.1-2.7
				c0-1-0.8-2.2-2-3.2c-2-1.6-3.9-3.1-5.6-4.5c-1.7-1.4-3.4-2.7-5.1-3.9c-2.3-2-3.9-4.7-4.1-7.6c-0.2-5.3,4.2-8.6,11.8-8.5
				c-0.1,2.4-0.1,3.5-0.2,5.9c-1.3,0.1-2.2,0.4-2.7,0.9c-0.5,0.5-0.8,1.3-0.8,2.3c0,1,0.3,1.8,1.1,2.3c0.5,0.3,1.2,0.8,1.9,1.3
				c0.7,0.5,1.5,1.1,2.4,1.7c0.8,0.6,1.6,1.2,2.4,1.8c0.8,0.6,1.5,1.2,2.2,1.7c0.7,0.5,1.2,0.9,1.6,1.2c0.4,0.3,0.6,0.5,0.7,0.5
				C290.6,377.7,292.1,380.4,292,383.5z M284.1,366c0.1-2.4-1-3.9-3.3-4.3c0.1-2.4,0.1-3.5,0.2-5.9c7.7,0.6,11.4,4.1,11.2,10.5
				C289,366.2,287.4,366.1,284.1,366z"/>
			<path d="M320.2,357.5c0,2.3-0.1,3.5-0.1,5.9c-8.3-0.1-16.7-0.3-25-0.6c0.1-2.3,0.1-3.5,0.2-5.9
				C303.6,357.2,311.9,357.4,320.2,357.5z M303.5,364.4c3.2,0.1,4.8,0.1,8.1,0.2c-0.2,9.2-0.4,18.4-0.6,27.7
				c-3.3-0.1-4.9-0.1-8.2-0.2C303,382.8,303.3,373.6,303.5,364.4z"/>
			<path d="M322.6,366.5c0.1-6.3,4-9.4,11.8-9.6c0,2.3,0,3.4-0.1,5.7c-2.3,0.2-3.4,1.5-3.5,3.7c-0.1,7-0.1,10.6-0.2,17.6
				c0,2.3,1.1,3.5,3.4,3.8c0,2.3,0,3.4-0.1,5.6c-7.9-0.4-11.8-4-11.7-10.8C322.5,376.1,322.5,372.9,322.6,366.5z M339.2,366.4
				c0-2.3-1.1-3.5-3.5-3.7c0-2.3,0-3.4,0.1-5.7c7.9,0.1,11.9,3.4,11.8,10c0,6.4,0,9.6,0,16c0,6.8-4.1,10.3-12.1,10.4
				c0-2.3,0-3.4,0-5.6c2.4-0.2,3.6-1.4,3.6-3.7C339.2,376.9,339.2,373.4,339.2,366.4z"/>
			<path d="M367,392.6c-0.1-11.6-0.2-23.3-0.3-34.9c3.2,0,4.9,0,8.1-0.1c0.1,11.6,0.3,23.3,0.4,34.9
				C372,392.6,370.4,392.6,367,392.6z M376.3,370.4c1.4-2.4,2.2-3.6,3.6-6c4.6,9.3,9.3,18.6,14.1,27.8c-3.5,0.1-5.3,0.1-8.8,0.2
				c-2.9-5.8-4.3-8.7-7.1-14.5c-0.7,1-1,1.5-1.7,2.5C376.4,376.4,376.3,374.4,376.3,370.4z M392.5,357.3c-3.3,4.9-4.9,7.4-8.2,12.2
				c-1.4-2.6-2-4-3.4-6.6c1.3-2.2,1.9-3.3,3.1-5.5C387.4,357.4,389.1,357.4,392.5,357.3z"/>
			<path d="M408.9,392.5c-7.9,0-11.9-3.5-12.1-10.3c-0.2-8.3-0.4-16.6-0.6-24.9c3.3-0.1,4.9-0.1,8.2-0.2c0.3,8.7,0.5,17.5,0.8,26.2
				c0.1,2.3,1.3,3.5,3.6,3.6C408.8,389.1,408.8,390.2,408.9,392.5z M410.2,386.8c1.2-0.2,2-0.5,2.6-1.1c0.6-0.6,0.9-1.5,0.8-2.7
				c-0.3-8.7-0.6-17.5-0.9-26.2c3.3-0.1,5-0.2,8.3-0.3c0.3,8.4,0.6,16.7,1,25.1c0.2,6.8-3.7,10.5-11.7,10.9
				C410.3,390.2,410.2,389.1,410.2,386.8z"/>
			<path d="M425.3,356.3c3.3-0.1,5-0.2,8.2-0.4c0.5,11.6,1,23.2,1.6,34.9c-3.4,0.2-5,0.2-8.4,0.4
				C426.3,379.5,425.8,367.9,425.3,356.3z"/>
			<path d="M439.6,390.6c-0.6-11.6-1.1-23.2-1.7-34.9c3.2-0.2,4.9-0.2,8.1-0.4c0.6,11.6,1.2,23.2,1.8,34.9
				C444.6,390.4,442.9,390.4,439.6,390.6z M448,368c1.4-2.5,2-3.7,3.4-6.1c5,9.1,10.1,18.2,15.2,27.2c-3.5,0.2-5.3,0.3-8.8,0.5
				c-3.1-5.7-4.6-8.5-7.7-14.2c-0.6,1-0.9,1.5-1.6,2.6C448.3,374,448.2,372,448,368z M463.7,354.3c-3.1,5-4.6,7.5-7.7,12.6
				c-1.5-2.6-2.2-3.9-3.7-6.5c1.2-2.2,1.8-3.4,2.9-5.6C458.6,354.6,460.3,354.5,463.7,354.3z"/>
			<path d="M469.7,388.9c-0.7-11.6-1.5-23.2-2.2-34.8c3.2-0.2,4.9-0.3,8.1-0.5c0.8,11.6,1.6,23.2,2.4,34.8
				C474.7,388.6,473,388.7,469.7,388.9z M477.7,366.2c1.3-2.5,2-3.7,3.3-6.2c5.2,9,10.4,18,15.6,27c-3.5,0.3-5.3,0.4-8.8,0.7
				c-3.2-5.6-4.8-8.4-7.9-14.1c-0.6,1-0.9,1.5-1.5,2.6C478.1,372.2,478,370.2,477.7,366.2z M493.2,352.3c-3,5.1-4.5,7.6-7.5,12.7
				c-1.5-2.6-2.3-3.8-3.8-6.4c1.1-2.3,1.7-3.4,2.8-5.6C488.1,352.7,489.8,352.5,493.2,352.3z"/>
			<path d="M514.3,350.5c4,11.3,8,22.6,12.1,33.9c-3.4,0.3-5.1,0.5-8.6,0.8c-0.9-2.9-1.4-4.3-2.3-7.1c-2.8,0.3-4.2,0.4-7.1,0.6
				c0.3-2.4,0.4-3.5,0.7-5.9c1.9-0.2,2.8-0.2,4.7-0.4c-1.6-5.6-2.4-8.3-4-13.9c-1.3,9.3-2.6,18.5-3.9,27.8c-3.2,0.3-4.8,0.4-8.1,0.7
				c2.1-11.8,4.1-23.7,6.1-35.5C508.1,351.1,510.1,350.9,514.3,350.5z"/>
		</g>
	</g>
	<path d="M309.7,192.4c3.1,0.1,6.1-0.5,9-1.7c4-1.7,11-2.9,17.3,5c9.7,12,20.8,34.1,21.1,43.5c0.3,9.4,12.5,33.4,12.5,33.4
		l-54.3,4.5v-3.4l3.2-5.1l5.4-9.7l3.5-12.9l-0.3-12.8l-2.2-11.4l-4.4-4.7l-4.2-2l-2.3-0.1l5.1-4.2l3.8-4.9v-6.2l-0.8-3.4l-3.2-1.6
		l-12.7-2.4L309.7,192.4z"/>
</g>
</svg>
